<?xml version="1.0" encoding="UTF-8"?><svg id="Layer_2" xmlns="http://www.w3.org/2000/svg" viewBox="0 0 62 62"><g id="Layer_1-2"><path d="m57,31c0,3.39-2.6,6.24-3.82,9.19s-1.49,6.9-3.79,9.2-6.14,2.53-9.2,3.79-5.8,3.82-9.19,3.82-6.24-2.6-9.19-3.82-6.9-1.49-9.2-3.79-2.53-6.14-3.79-9.2-3.82-5.8-3.82-9.19,2.6-6.24,3.82-9.19,1.49-6.9,3.79-9.2,6.14-2.53,9.2-3.79,5.8-3.82,9.19-3.82,6.24,2.6,9.19,3.82,6.9,1.49,9.2,3.79,2.53,6.14,3.79,9.2,3.82,5.8,3.82,9.19Z" style="fill:#fff; stroke-width:0px;"/><path d="m57,31c0,3.39-2.6,6.24-3.82,9.19s-1.49,6.9-3.79,9.2-6.14,2.53-9.2,3.79-5.8,3.82-9.19,3.82-6.24-2.6-9.19-3.82-6.9-1.49-9.2-3.79-2.53-6.14-3.79-9.2-3.82-5.8-3.82-9.19,2.6-6.24,3.82-9.19,1.49-6.9,3.79-9.2,6.14-2.53,9.2-3.79,5.8-3.82,9.19-3.82,6.24,2.6,9.19,3.82,6.9,1.49,9.2,3.79,2.53,6.14,3.79,9.2,3.82,5.8,3.82,9.19Z" style="fill:none; stroke:#232323; stroke-miterlimit:10; stroke-width:10px;"/></g></svg>